<!-- icon666.com - MILLIONS vector ICONS FREE --><svg id="Layer_1" enable-background="new 0 0 98 98" viewBox="0 0 98 98" xmlns="http://www.w3.org/2000/svg"><g><path d="m72.512 47.355h2v1.999h-2z" transform="matrix(.384 .923 -.923 .384 89.909 -38.094)"></path><path d="m75.585 54.741h1.999v2h-1.999z" transform="matrix(-.923 .384 -.384 -.923 168.712 77.759)"></path><path d="m74.049 51.047h1.999v2h-1.999z" transform="matrix(-.923 .384 -.384 -.923 164.338 71.247)"></path><path d="m55.15 32.469h2v2h-2z" transform="matrix(.965 .261 -.261 .965 10.703 -13.516)"></path><path d="m59.011 33.514h1.999v2h-1.999z" transform="matrix(.965 .262 -.262 .965 11.117 -14.495)"></path><path d="m62.872 34.56h2v2h-2z" transform="matrix(.965 .261 -.261 .965 11.519 -15.462)"></path><path d="m15.5479 59.1884 11.0895 7.8102-.0037.005c-1.2959 1.7554-.9229 4.2383.833 5.5361.5621.4155 1.2114.6603 1.8951.7386-.8139 1.6807-.3488 3.7582 1.2064 4.9064 1.1143.8238 2.6213 1.049 4.0313.3859.2256.8304.7048 1.5972 1.4492 2.1468 1.0554.7803 2.413 1.0263 3.809.4678.2141.9119.7218 1.7171 1.483 2.2797 1.2535.9254 2.9457 1.0791 4.4358.1497 1.023.5355 2.1402.7839 3.2146.7839 1.2285 0 2.3926-.3018 3.2666-.7939 1.0408-.5859 1.6852-1.4438 1.8524-2.4125 2.0597.7168 4.3075.2302 5.838-1.1895.9844-.835 1.5605-2.0562 1.5791-3.3511.0004-.0233-.0063-.0456-.0063-.0688 2.184.8346 4.452.287 5.9526-1.0742 1.2248-1.0254 1.9349-2.59 1.8081-4.2783 2.1296.8528 4.3683.3769 5.9644-.9849 1.3652-1.1875 2.0938-2.9082 2-4.7212-.0132-.2433-.0508-.4857-.0929-.7262l5.4927-2.4564 1.0114 2.413 13.6191-5.7578-14.166-35.7944-14.3291 6.0591 1.1575 2.7618-18.2033-4.9302-8.7463 3.8773-17.6818-1.2833 1.4525-4.3909-13.9502-4.6147-12.086 36.538 13.9492 4.6143zm12.6953 9.0037 1.3467-1.8223c.6554-.8879 1.881-1.044 2.7383-.4121.7059.5216.9919 1.4533.646 2.3059l-1.9149 2.5927c-.6737.5401-1.6888.6044-2.4039.0751-.8693-.6421-1.0538-1.8711-.4122-2.7393zm3.5127 8.3843c-.8682-.6416-1.0527-1.8706-.4111-2.7393.0745-.1009 4.4458-6.0224 4.3721-5.9194.6539-.8859 1.8803-1.0452 2.7393-.4121.8754.6469 1.0508 1.8755.4111 2.7388-.5852.7924-4.4588 6.0375-4.3721 5.9199-.6222.8418-1.8907 1.0376-2.7393.4121zm5.4804 2.5327c-.8575-.6337-1.0446-1.8388-.4309-2.7054l3.3087-4.4801c.6726-.8807 1.8834-1.0037 2.7159-.3882.8691.6421 1.0537 1.8706.4121 2.7388-.0772.1032-3.4266 4.5921-3.2666 4.4229-.623.8436-1.8915 1.037-2.7392.412zm5.293 2.7475c-.7928-.5858-1.0081-1.6566-.5541-2.4996l2.4615-3.3328c.3683-.391.8668-.6217 1.4148-.6217.4199 0 .8213.1328 1.1611.3833.4209.311.6953.7671.7725 1.2842.0781.5176-.0498 1.0342-.3613 1.4546l-2.1563 2.9199c-.622.8428-1.8925 1.0381-2.7382.4121zm8.7471.0054c-.9957.5608-2.6055.7232-4.0018.2325l1.7586-2.3814c.3636-.4925.5876-1.053.6949-1.638l2.1205 1.9095c.1875.1685.2979.4014.3105.6553.0313.582-.4628.9858-.8827 1.2221zm20.1201-51.5351 10.6084-4.4849 12.6934 32.0737-9.9727 4.2158-9.0676-21.6364-3.2458-7.8021-.0271-.0073zm-19.499-1.1177 19.021 5.1515 2.7501 6.5616 8.1527 19.597-5.7041 2.5513-24.4668-22.8253-6.8223 1.4668-2.3115 4.8896c-.8019 1.6978-2.8302 2.4967-4.6006 1.7207-1.5371-.6738-2.3887-2.3525-2.0244-3.9917l1.9785-8.9043zm-12.7962 3.4845-2.9636 1.3138-2.1992 9.8896c-.5703 2.5693.7646 5.2007 3.1748 6.2573 2.7548 1.2076 5.9468-.0211 7.2119-2.6982l1.8896-3.9961 4.835-1.04 24.0813 22.4656c.0588.2418.1039.4902.1169.7433.0625 1.1938-.417 2.3262-1.3076 3.1011-1.4326 1.2241-3.5166 1.2397-4.9551.0366-19.2512-16.5451-12.6114-10.8387-14.0478-12.0731l-1.3125 1.5088c1.2939 1.1372-4.6872-4.1197 12.6543 11.1221 1.3763 1.2397 1.3827 3.4173-.1191 4.6763-1.3955 1.2671-3.5459 1.3076-4.999.0977-16.0273-13.8432-10.4995-9.0687-11.6953-10.1016l-1.3125 1.5088c1.0786.9432-3.9073-3.4167 10.5488 9.2241.5352.4824.8359 1.1719.8252 1.8921-.0098.7178-.3281 1.394-.9053 1.8848-1.4004 1.2949-3.5635 1.354-5.0352.1323l-2.9164-2.4159.0112-.0128-3.4512-3.0049-.3082.3543c-.3458-.0975-.7032-.157-1.0707-.157-.0856 0-.1672.0244-.2521.03.1055-1.3196-.4398-2.6627-1.5809-3.5056-.7391-.5464-1.6214-.8516-2.7747-.7244.0397-1.3788-.596-2.564-1.6003-3.3054-1.449-1.0713-3.4178-1.0308-4.838.1153-.2723-.6543-.7051-1.2314-1.2899-1.6631-1.77-1.3086-4.2463-.9124-5.5352.832l-.154.2083-11.6222-8.1854 8.455-25.5587zm-35.8503 23.2552 10.8301-32.7402 10.1514 3.3579-10.8311 32.7398z"></path><path d="m6.079 4.601h2v2h-2z"></path><path d="m14.079 4.601h2v2h-2z"></path><path d="m10.079 4.601h2v2h-2z"></path><path d="m34.57 18.178h2v2h-2z"></path><path d="m26.57 18.178h2v2h-2z"></path><path d="m30.57 18.178h2v2h-2z"></path><path d="m59.797 5.42h2v2h-2z"></path><path d="m63.797 5.42h2v2h-2z"></path><path d="m67.797 5.42h2v2h-2z"></path><path d="m82.812 14.753h2v2h-2z"></path><path d="m74.812 14.753h2v2h-2z"></path><path d="m78.812 14.753h2v2h-2z"></path><path d="m63.2031 22.779v-2.0688h2.0684v-2h-2.0684v-2.0689h-2v2.0689h-2.0693v2h2.0693v2.0688z"></path><path d="m16.8105 17.7102v-2.0689h2.0694v-2h-2.0694v-2.0688h-2v2.0688h-2.0693v2h2.0693v2.0689z"></path><path d="m3.191 77.822h2v2h-2z"></path><path d="m7.191 77.822h2v2h-2z"></path><path d="m11.191 77.822h2v2h-2z"></path><path d="m27.683 91.399h2v2h-2z"></path><path d="m23.683 91.399h2v2h-2z"></path><path d="m31.683 91.399h2v2h-2z"></path><path d="m15.9922 86.8615h-2.0693v-2.0688h-2v2.0688h-2.0694v2h2.0694v2.0694h2v-2.0694h2.0693z"></path><path d="m86.913 77.822h2v2h-2z"></path><path d="m90.913 77.822h2v2h-2z"></path><path d="m82.913 77.822h2v2h-2z"></path><path d="m62.423 91.399h2v2h-2z"></path><path d="m70.423 91.399h2v2h-2z"></path><path d="m66.423 91.399h2v2h-2z"></path><path d="m86.251 86.8615h-2.0684v-2.0688h-2v2.0688h-2.0693v2h2.0693v2.0694h2v-2.0694h2.0684z"></path><path d="m45.1875 13.7385v-2.0689h2.0684v-2h-2.0684v-2.0688h-2v2.0688h-2.0693v2h2.0693v2.0689z"></path></g></svg>